<svg width="14" height="16" viewBox="0 0 14 16" fill="none" xmlns="http://www.w3.org/2000/svg">
<path d="M13.125 5V2.41406C13.125 2.28271 13.1023 2.15265 13.0583 2.03131C13.0143 1.90997 12.9498 1.79972 12.8685 1.70687L11.6312 0.292812C11.4672 0.105363 11.2447 4.00509e-05 11.0127 0L4.375 0C4.14294 0 3.92038 0.105357 3.75628 0.292893C3.59219 0.48043 3.5 0.734784 3.5 1V15C3.5 15.2652 3.59219 15.5196 3.75628 15.7071C3.92038 15.8946 4.14294 16 4.375 16H13.125C13.3571 16 13.5796 15.8946 13.7437 15.7071C13.9078 15.5196 14 15.2652 14 15V6C14 5.73478 13.9078 5.48043 13.7437 5.29289C13.5796 5.10536 13.3571 5 13.125 5ZM7.875 13.5C7.875 13.6326 7.82891 13.7598 7.74686 13.8536C7.66481 13.9473 7.55353 14 7.4375 14H6.5625C6.44647 14 6.33519 13.9473 6.25314 13.8536C6.17109 13.7598 6.125 13.6326 6.125 13.5V12.5C6.125 12.3674 6.17109 12.2402 6.25314 12.1464C6.33519 12.0527 6.44647 12 6.5625 12H7.4375C7.55353 12 7.66481 12.0527 7.74686 12.1464C7.82891 12.2402 7.875 12.3674 7.875 12.5V13.5ZM7.875 9.5C7.875 9.63261 7.82891 9.75979 7.74686 9.85355C7.66481 9.94732 7.55353 10 7.4375 10H6.5625C6.44647 10 6.33519 9.94732 6.25314 9.85355C6.17109 9.75979 6.125 9.63261 6.125 9.5V8.5C6.125 8.36739 6.17109 8.24021 6.25314 8.14645C6.33519 8.05268 6.44647 8 6.5625 8H7.4375C7.55353 8 7.66481 8.05268 7.74686 8.14645C7.82891 8.24021 7.875 8.36739 7.875 8.5V9.5ZM11.375 13.5C11.375 13.6326 11.3289 13.7598 11.2469 13.8536C11.1648 13.9473 11.0535 14 10.9375 14H10.0625C9.94647 14 9.83519 13.9473 9.75314 13.8536C9.67109 13.7598 9.625 13.6326 9.625 13.5V12.5C9.625 12.3674 9.67109 12.2402 9.75314 12.1464C9.83519 12.0527 9.94647 12 10.0625 12H10.9375C11.0535 12 11.1648 12.0527 11.2469 12.1464C11.3289 12.2402 11.375 12.3674 11.375 12.5V13.5ZM11.375 9.5C11.375 9.63261 11.3289 9.75979 11.2469 9.85355C11.1648 9.94732 11.0535 10 10.9375 10H10.0625C9.94647 10 9.83519 9.94732 9.75314 9.85355C9.67109 9.75979 9.625 9.63261 9.625 9.5V8.5C9.625 8.36739 9.67109 8.24021 9.75314 8.14645C9.83519 8.05268 9.94647 8 10.0625 8H10.9375C11.0535 8 11.1648 8.05268 11.2469 8.14645C11.3289 8.24021 11.375 8.36739 11.375 8.5V9.5ZM11.375 6H5.25V2H9.625V3.5C9.625 3.63261 9.67109 3.75979 9.75314 3.85355C9.83519 3.94732 9.94647 4 10.0625 4H11.375V6ZM1.75 4H0.875C0.642936 4 0.420376 4.10536 0.256282 4.29289C0.0921872 4.48043 0 4.73478 0 5L0 15C0 15.2652 0.0921872 15.5196 0.256282 15.7071C0.420376 15.8946 0.642936 16 0.875 16H1.75C1.98206 16 2.20462 15.8946 2.36872 15.7071C2.53281 15.5196 2.625 15.2652 2.625 15V5C2.625 4.73478 2.53281 4.48043 2.36872 4.29289C2.20462 4.10536 1.98206 4 1.75 4Z" fill="#333333"/>
</svg>
