<svg width="17" height="24" viewBox="0 0 17 24" fill="none" xmlns="http://www.w3.org/2000/svg">
<path d="M7.26562 18.6C7.42031 18.8391 7.69219 18.9984 8.00156 18.9984C8.31094 18.9984 8.58281 18.8391 8.74219 18.6L13.9078 10.6219C14.6016 9.54844 15.0047 8.36719 15.0047 6.99844C15 3.04219 11.8922 0 8.00156 0C4.11094 0 1.00312 3.04219 1.00312 6.99844C1.00312 8.36719 1.40625 9.54844 2.1 10.6219L7.26562 18.6ZM8.00156 3C10.2094 3 12 4.79063 12 6.99844C12 9.20625 10.2094 10.9969 8.00156 10.9969C5.79375 10.9969 4.00312 9.20625 4.00312 6.99844C4.00312 4.79063 5.79375 3 8.00156 3ZM13.1297 15.1641L8.00156 21.9984L2.87344 15.1641C1.12031 16.0828 0 17.4562 0 18.9984C0 21.7594 3.58125 24 8.00156 24C12.4219 24 16.0031 21.7594 16.0031 18.9984C16.0031 17.4562 14.8828 16.0828 13.1297 15.1641Z" fill="#19283A"/>
</svg>
