<svg width="15" height="13" viewBox="0 0 15 13" fill="none" xmlns="http://www.w3.org/2000/svg">
<path d="M2.5 0C1.83696 0 1.20107 0.263392 0.732233 0.732233C0.263392 1.20107 0 1.83696 0 2.5V2.75125L7.5 6.79L15 2.7525V2.5C15 1.83696 14.7366 1.20107 14.2678 0.732233C13.7989 0.263392 13.163 0 12.5 0H2.5Z" fill="#333333"/>
<path d="M15 4.17188L7.79625 8.05062C7.7052 8.09964 7.60341 8.1253 7.5 8.1253C7.39659 8.1253 7.2948 8.09964 7.20375 8.05062L0 4.17188V10.0006C0 10.6637 0.263392 11.2996 0.732233 11.7684C1.20107 12.2372 1.83696 12.5006 2.5 12.5006H12.5C13.163 12.5006 13.7989 12.2372 14.2678 11.7684C14.7366 11.2996 15 10.6637 15 10.0006V4.17188Z" fill="#333333"/>
</svg>
