<svg width="14" height="15" viewBox="0 0 14 15" fill="none" xmlns="http://www.w3.org/2000/svg">
<path d="M9.33393 9.95079L10.5395 8.74464C10.7018 8.5842 10.9073 8.47437 11.1308 8.42849C11.3544 8.38261 11.5864 8.40265 11.7988 8.48618L13.2681 9.0731C13.4827 9.16026 13.6667 9.30904 13.797 9.50069C13.9272 9.69234 13.9979 9.91827 14 10.15V12.8423C13.9988 13 13.9656 13.1557 13.9026 13.3003C13.8396 13.4448 13.748 13.575 13.6334 13.6832C13.5188 13.7913 13.3834 13.8752 13.2355 13.9296C13.0877 13.9841 12.9303 14.008 12.7729 14C2.47744 13.3593 0.400043 4.63618 0.00716727 1.29771C-0.0110703 1.13377 0.00559289 0.967825 0.0560605 0.810789C0.106528 0.653753 0.189656 0.509187 0.299977 0.386603C0.410297 0.264019 0.545309 0.166194 0.69613 0.0995641C0.846951 0.0329343 1.01016 -0.000990317 1.17503 2.20064e-05H3.77447C4.00643 0.000708968 4.23288 0.0708121 4.4247 0.201315C4.61652 0.331817 4.76493 0.516751 4.85084 0.73233L5.43746 2.20233C5.52371 2.41398 5.54571 2.64637 5.50073 2.87046C5.45574 3.09455 5.34576 3.30041 5.18452 3.46233L3.97898 4.66848C3.97898 4.66848 4.67324 9.36925 9.33393 9.95079Z" fill="#333333"/>
</svg>
