<svg width="161" height="45" viewBox="0 0 161 45" fill="none" xmlns="http://www.w3.org/2000/svg">
<path fill-rule="evenodd" clip-rule="evenodd" d="M49.5478 8.78713L55.0974 9.33883L55.8304 9.3515V10.1576L55.7319 12.4947L48.6608 14.1534L49.1948 12.4063C49.2214 11.6297 49.5478 11.2235 49.5478 10.3995V8.78713V8.78713ZM25.7227 12.2536C25.7227 11.0088 28.9599 6.70083 29.7073 5.71039C30.6753 4.42741 33.7363 1.28984 35.7586 1.28984H36.0034C36.7016 1.28984 39.8352 2.30775 40.2462 2.57968C40.8343 2.57968 44.0904 3.78307 44.8256 4.02067C45.5412 4.25189 46.4368 4.49569 47.1104 4.74605C47.371 4.84295 48.0718 4.99855 48.238 5.08297C48.6127 5.27348 48.3912 5.842 48.5687 6.20745L39.3575 3.75745C39.4134 4.06352 39.7567 5.36757 39.7567 5.56253V7.09423L39.6653 7.81825L48.8131 8.70958L48.8134 9.75456C48.8134 10.9627 48.6898 12.582 48.481 13.6181C48.3127 14.4532 48.2256 14.2655 47.2307 14.4789C46.6119 14.6114 46.1305 14.6761 45.5766 14.8599C45.1328 15.007 44.3366 15.0472 43.8061 15.2066C43.2973 15.3594 42.6945 15.4881 42.173 15.6085C41.3506 15.7982 39.4472 16.2844 38.696 16.2844C38.2612 16.572 34.0524 17.4131 33.1476 17.4131H32.0869C30.7691 17.4131 28.9619 16.8424 28.1214 16.3329C27.5836 16.0069 27.1153 15.6755 26.7228 15.2157C26.2019 14.6059 26.1797 14.2588 25.8042 13.7047L25.7018 12.5781L25.7227 12.2536V12.2536ZM60.8892 12.4955L62.1947 11.6087L62.5207 11.1228L60.6347 11.4468L60.7261 9.91577H61.1339C61.5128 9.91577 61.3788 10.5588 61.3788 10.9638C61.5004 10.7908 61.5419 10.6974 61.5419 10.3995V9.99642H61.7867V11.0444C61.9242 10.95 61.9499 11.0328 61.9499 10.8025V10.077H62.1947V9.91577C61.8695 9.90861 61.5348 9.80785 61.2211 9.74905C60.5432 9.62208 60.7243 9.73899 60.6132 9.2048C60.5663 8.98006 59.4006 8.63163 59.0433 8.51501C58.4058 8.3069 57.9197 8.09608 57.298 7.90142C56.9045 7.77831 55.7962 7.52185 55.7121 7.08214L55.6472 7.31056L49.1678 5.00213L49.1398 5.07881C49.0172 4.77845 46.6654 4.15171 46.073 3.91681C45.1307 3.54334 43.7396 2.9752 42.7913 2.72542C41.659 2.42699 36.7331 0.403063 36.1665 0.403063H35.1059C33.6105 0.403063 32.3156 1.15455 31.4323 1.77162C30.4366 2.46722 29.851 3.52932 28.5126 3.8851C26.3895 4.44956 22.6961 5.72373 20.1743 5.72373H19.6848C19.354 5.72373 18.9504 5.6368 18.9504 5.32067V5.15937C18.9504 4.45904 21.3734 2.75646 21.9552 2.3239C22.4931 1.92422 25.3042 0.234218 25.4778 0C24.4434 0.0850031 18.4696 3.45902 17.5855 4.13334C17.0161 4.56763 16.4122 4.994 15.8499 5.40123C15.285 5.81019 14.7867 6.44167 14.2664 6.81959C13.7918 7.16434 11.734 9.61937 11.6071 10.1576C11.9297 9.9441 12.8113 8.63018 13.2581 8.24182C13.6184 7.92888 14.95 6.77172 15.442 6.77172H15.6867C16.5506 6.77172 16.1309 8.38407 18.4608 8.38407L20.0199 8.45312L25.8858 7.73915C25.8579 8.07123 24.5721 10.0918 24.3198 10.4645C23.7209 11.349 23.0225 11.9773 22.2754 12.7173C21.0373 13.9438 18.6926 15.3976 16.2579 15.3976C14.1135 15.3976 13.1474 14.7472 11.7703 14.0272C12.0176 14.9424 16.4184 17.1692 17.6333 17.5858C19.6925 18.2917 22.7277 19.1866 25.4778 19.1866H25.7227L25.7202 19.2762L23.3466 19.7393C22.2318 20.0914 20.2526 20.4037 18.9293 20.7613C17.5681 21.0294 16.1137 21.4389 14.6752 21.7498C14.3106 21.7888 13.8494 21.9227 13.3281 22.042C12.2097 22.298 10.8776 22.631 10.0731 22.8304C9.53394 22.9234 8.83571 23.0956 8.01612 23.2811C7.73856 23.3438 7.46765 23.4147 7.16422 23.4785C5.71523 23.783 4.27532 24.1763 2.81949 24.4871C2.46256 24.5633 2.15796 24.652 1.83384 24.7165C1.54486 24.7739 1.23069 24.8045 1 24.9104C2.49361 24.9104 3.99883 24.9291 5.49078 24.9135C6.12273 24.8246 6.76336 24.6431 7.38701 24.4874C8.16393 24.2934 8.9182 24.1156 9.6387 23.932C10.0192 23.835 10.3547 23.71 10.7175 23.6519L18.7652 21.6786L18.8202 21.67L18.8751 21.6355L19.2099 21.5742C21.8407 20.8469 24.6712 20.3237 26.8959 19.7009C27.9297 19.3912 29.5719 19.1018 30.8651 19.1081C31.6545 19.1119 33.9368 18.5666 34.6984 18.3811C37.0307 17.8127 39.5304 16.9375 41.9118 16.4791C43.1364 16.2433 44.2624 15.7926 45.5171 15.5266C46.095 15.4042 46.8099 15.2372 47.3354 15.066C47.6617 14.9598 48.9294 14.8262 49.0583 14.5109L49.0813 14.5967L58.0126 12.2567L58.0557 12.4067L36.3956 18.8936L14.1433 25.5952L16.9922 26.039C17.5035 26.1232 34.8516 20.048 37.0808 19.445C38.8128 18.9767 40.4716 18.2726 42.1216 17.815C43.6817 17.3824 45.5294 16.7045 47.1509 16.1735C48.8014 15.633 50.5484 15.1093 52.1342 14.4866C52.625 14.2939 56.9746 12.9039 57.2349 12.9472L39.445 19.1466L32.9312 21.442C32.9308 21.4409 29.9487 22.4871 29.4046 22.6632C28.3744 22.9967 26.7762 23.7359 25.7979 23.9366C24.8582 24.1295 23.1943 24.8107 22.2234 25.1614C21.7224 25.3423 18.8239 26.1999 18.7057 26.5227H19.1137C20.1092 26.5227 23.339 27.8932 24.0092 27.8932C24.2772 27.8932 37.442 22.0611 38.9158 21.4192C41.3881 20.3426 43.9115 19.3356 46.3392 18.1931C47.4605 17.6654 53.8576 14.9619 53.8366 14.9149L60.6179 11.9525L60.6721 12.0649L27.2729 29.0218V29.183C28.4953 29.4644 33.0224 32.1659 33.066 32.1659C33.4533 32.1659 57.9408 14.2576 60.7301 12.4028L60.8892 12.4955V12.4955Z" fill="white"/>
<path fill-rule="evenodd" clip-rule="evenodd" d="M60.8895 12.4942L35.5957 34.1799C35.9066 34.6387 36.625 35.229 36.9829 35.7117C37.4417 36.3304 37.808 36.7347 38.2334 37.4589C38.8956 38.5864 39.6754 40.1847 39.6754 41.9192L39.7262 42.7331L39.3732 44.9987L62.195 11.6074L60.8895 12.4942V12.4942Z" fill="white"/>
<path d="M1 24.911C25.6277 19.1809 25.7484 19.252 25.7484 19.252" stroke="white" stroke-width="0.0762" stroke-miterlimit="22.9256"/>
<path d="M6.07227 24.785C26.9678 19.6296 26.3747 19.8232 26.3747 19.8232" stroke="white" stroke-width="0.0762" stroke-miterlimit="22.9256"/>
<path d="M88.084 9.9375H91.0488V27H88.084V14.8477L80.5957 27H77.6309V9.9375H80.5957V22.1016L88.084 9.9375ZM98.4434 9.9375L103.365 23.0156L108.275 9.9375H112.107V27H109.154V21.375L109.447 13.8516L104.408 27H102.287L97.2598 13.8633L97.5527 21.375V27H94.5996V9.9375H98.4434ZM128.643 21.4453C128.471 23.2656 127.799 24.6875 126.627 25.7109C125.455 26.7266 123.896 27.2344 121.951 27.2344C120.592 27.2344 119.393 26.9141 118.354 26.2734C117.322 25.625 116.525 24.707 115.963 23.5195C115.4 22.332 115.107 20.9531 115.084 19.3828V17.7891C115.084 16.1797 115.369 14.7617 115.939 13.5352C116.51 12.3086 117.326 11.3633 118.389 10.6992C119.459 10.0352 120.693 9.70312 122.092 9.70312C123.975 9.70312 125.49 10.2148 126.639 11.2383C127.787 12.2617 128.455 13.707 128.643 15.5742H125.689C125.549 14.3477 125.189 13.4648 124.611 12.9258C124.041 12.3789 123.201 12.1055 122.092 12.1055C120.803 12.1055 119.811 12.5781 119.115 13.5234C118.428 14.4609 118.076 15.8398 118.061 17.6602V19.1719C118.061 21.0156 118.389 22.4219 119.045 23.3906C119.709 24.3594 120.678 24.8438 121.951 24.8438C123.115 24.8438 123.99 24.582 124.576 24.0586C125.162 23.5352 125.533 22.6641 125.689 21.4453H128.643ZM140.854 23.0273H134.244L132.861 27H129.779L136.225 9.9375H138.885L145.342 27H142.248L140.854 23.0273ZM135.076 20.6367H140.021L137.549 13.5586L135.076 20.6367ZM158.209 12.3281H152.889V27H149.947V12.3281H144.674V9.9375H158.209V12.3281Z" fill="white"/>
</svg>
